<?xml version="1.0" standalone="no"?>
<!DOCTYPE svg PUBLIC "-//W3C//DTD SVG 20010904//EN"
 "http://www.w3.org/TR/2001/REC-SVG-20010904/DTD/svg10.dtd">
<svg version="1.0" xmlns="http://www.w3.org/2000/svg"
 width="788.000000pt" height="981.000000pt" viewBox="0 0 788.000000 981.000000"
 preserveAspectRatio="xMidYMid meet">
<metadata>
Created by potrace 1.15, written by Peter Selinger 2001-2017
</metadata>
<g transform="translate(0.000000,981.000000) scale(0.100000,-0.100000)"
fill="#000000" stroke="none">
<path d="M3885 9788 c-221 -11 -325 -20 -325 -29 0 -5 -11 -9 -25 -9 l-25 0 0
-174 c0 -96 -3 -181 -6 -190 -4 -11 -19 -16 -44 -16 -22 0 -42 -4 -45 -10 -3
-5 -30 -10 -60 -10 -30 0 -57 -4 -60 -10 -3 -5 -19 -10 -34 -10 -15 0 -41 -4
-57 -9 -16 -5 -49 -14 -74 -21 -25 -7 -54 -16 -65 -20 -11 -4 -67 -22 -125
-40 -58 -18 -109 -37 -115 -42 -5 -4 -15 -8 -22 -8 -12 0 -35 -9 -153 -62 -95
-43 -224 -110 -305 -160 -16 -10 -44 -25 -61 -32 -17 -8 -36 -22 -44 -30 -7
-9 -19 -16 -26 -16 -8 0 -14 -4 -14 -10 0 -5 -5 -10 -11 -10 -7 0 -19 -9 -28
-19 -9 -10 -37 -30 -63 -45 l-46 -25 -33 28 c-19 16 -77 72 -129 125 -52 53
-98 96 -101 96 -3 0 -14 -8 -25 -17 -10 -10 -44 -38 -73 -63 -30 -25 -64 -54
-76 -65 -11 -11 -58 -54 -105 -95 -82 -74 -101 -93 -210 -215 -86 -95 -112
-127 -150 -175 -19 -25 -40 -51 -47 -58 -7 -7 -13 -15 -13 -17 0 -2 54 -58
120 -124 128 -129 138 -147 100 -191 -11 -13 -20 -26 -20 -30 0 -4 -9 -17 -20
-30 -11 -13 -20 -29 -20 -35 0 -7 -7 -19 -17 -26 -9 -8 -25 -33 -35 -56 -10
-24 -22 -43 -27 -43 -8 0 -41 -70 -41 -88 0 -7 -4 -12 -8 -12 -15 0 -135 -254
-125 -264 3 -3 -2 -12 -11 -21 -9 -9 -16 -23 -16 -30 0 -8 -10 -36 -21 -62
-12 -27 -25 -55 -28 -63 -15 -34 -82 -262 -92 -315 -4 -22 -14 -67 -22 -100
-8 -33 -18 -87 -22 -119 -13 -112 -1 -106 -210 -106 l-182 0 -11 -52 c-26
-121 -36 -422 -23 -647 7 -119 17 -221 23 -228 5 -7 8 -25 6 -40 l-3 -28 200
-5 200 -5 3 -25 c14 -103 103 -427 156 -565 39 -102 105 -251 142 -320 85
-161 107 -199 147 -262 25 -37 68 -99 96 -138 28 -38 51 -78 51 -89 0 -11 -59
-78 -145 -164 l-145 -146 43 -53 c23 -30 51 -66 62 -80 11 -15 53 -60 92 -101
40 -41 73 -79 73 -83 0 -5 25 -32 54 -61 30 -29 82 -79 114 -110 33 -32 63
-58 67 -58 4 0 48 -36 97 -80 50 -44 94 -80 99 -80 10 0 209 202 209 213 0 4
5 7 10 7 6 0 29 20 52 45 35 37 46 44 67 38 14 -3 33 -13 41 -22 18 -19 68
-50 93 -58 9 -3 17 -9 17 -14 0 -5 7 -9 15 -9 8 0 15 -3 15 -7 0 -5 10 -13 23
-19 43 -21 142 -77 152 -85 5 -5 17 -9 26 -9 10 0 19 -3 21 -7 4 -11 87 -51
120 -59 15 -3 32 -12 39 -20 6 -8 18 -14 25 -14 8 0 22 -4 32 -9 45 -23 69
-32 90 -34 12 0 22 -4 22 -8 0 -4 10 -9 23 -12 12 -2 45 -13 72 -22 72 -26 74
-26 145 -47 36 -10 79 -21 95 -24 17 -3 39 -9 50 -14 11 -5 36 -11 55 -14 64
-9 145 -25 175 -34 l30 -8 5 -239 5 -239 25 -7 c14 -4 60 -7 103 -8 43 -1 87
-6 98 -11 27 -15 590 -14 599 1 4 6 10 10 14 10 3 -1 40 -1 81 -1 l75 0 0 249
c0 189 3 252 12 258 12 7 45 13 156 29 23 4 42 11 42 15 0 5 14 9 30 9 17 0
61 9 98 20 37 12 85 26 107 32 38 10 119 38 175 61 14 5 35 14 48 18 12 5 34
14 50 20 15 7 36 15 47 19 32 12 199 94 205 100 3 3 30 18 60 33 30 15 78 40
105 57 28 17 57 33 65 37 8 4 17 9 20 13 10 13 99 70 109 70 6 0 11 5 11 10 0
6 12 10 27 10 20 0 59 -33 182 -158 86 -87 165 -163 175 -169 15 -8 28 -6 57
10 22 11 39 24 39 27 0 4 30 31 68 61 37 29 84 71 105 91 21 21 42 38 47 38 6
0 10 7 10 15 0 8 9 19 19 25 11 5 25 16 33 24 36 37 228 244 247 266 11 14 34
41 51 60 54 63 58 56 -129 244 -94 95 -171 178 -171 185 0 13 16 47 32 65 26
32 78 106 78 111 0 3 20 37 45 75 25 38 45 76 45 84 0 8 6 19 13 23 16 9 47
69 47 90 0 7 5 13 11 13 5 0 8 4 5 9 -3 4 6 23 19 41 14 19 25 39 25 44 0 6
18 48 40 94 22 45 54 126 71 180 17 53 44 135 59 182 119 361 163 892 111
1315 -17 134 -32 221 -56 320 -13 55 -26 112 -30 128 -3 15 -9 27 -13 27 -5 0
-189 -180 -409 -400 l-400 -400 -6 -167 c-3 -93 -10 -193 -16 -223 -5 -30 -15
-86 -21 -125 -10 -62 -34 -147 -96 -345 -10 -30 -32 -86 -50 -124 -18 -37 -30
-75 -27 -82 3 -8 1 -14 -5 -14 -6 0 -20 -19 -32 -42 -28 -56 -68 -126 -104
-185 -34 -55 -206 -287 -206 -278 0 3 -15 -11 -32 -32 -18 -21 -46 -53 -63
-70 -16 -18 -35 -38 -41 -45 -13 -15 -53 -48 -57 -48 -2 0 -26 -22 -54 -48
-55 -52 -246 -192 -261 -192 -5 0 -15 -7 -22 -15 -7 -9 -28 -23 -46 -31 -19
-9 -34 -20 -34 -25 0 -5 -7 -9 -15 -9 -15 0 -55 -19 -65 -31 -3 -3 -32 -16
-65 -30 -33 -13 -61 -27 -63 -31 -2 -5 -10 -8 -18 -8 -8 0 -34 -9 -56 -20 -23
-11 -48 -20 -55 -20 -7 0 -22 -4 -33 -10 -11 -5 -29 -14 -40 -20 -11 -5 -31
-10 -44 -10 -14 0 -28 -4 -31 -10 -3 -5 -19 -10 -35 -10 -16 0 -31 -4 -34 -9
-3 -5 -23 -11 -43 -14 -21 -3 -58 -11 -83 -17 -102 -26 -208 -34 -455 -34
-258 -1 -421 9 -431 26 -3 4 -15 8 -27 8 -31 0 -201 43 -205 53 -2 4 -11 7
-20 7 -18 0 -78 18 -104 31 -10 5 -23 9 -28 9 -6 0 -30 9 -52 20 -23 11 -49
20 -57 20 -9 0 -27 9 -41 20 -14 11 -30 20 -37 20 -7 0 -29 10 -50 22 -21 11
-62 34 -91 49 -30 16 -66 38 -82 49 -15 11 -33 20 -38 20 -6 0 -12 4 -14 8 -4
11 -167 122 -179 122 -5 0 -9 6 -9 13 0 7 -10 19 -22 26 -43 27 -157 134 -228
215 -39 44 -82 93 -95 108 -13 15 -32 40 -42 55 -10 15 -27 37 -38 48 -11 12
-33 45 -50 74 -16 29 -41 69 -54 89 -33 51 -80 132 -93 162 -5 14 -27 63 -48
110 -60 134 -113 291 -127 375 -2 17 -8 39 -13 50 -4 11 -16 72 -26 135 -21
132 -31 558 -15 625 5 22 15 76 21 120 24 171 119 481 184 600 12 22 28 56 36
75 7 19 23 49 34 65 12 17 32 50 45 75 13 25 36 61 50 80 14 19 46 64 70 100
24 35 59 79 78 97 18 19 33 37 33 41 0 10 199 207 261 259 77 63 89 73 93 73
2 0 17 12 33 28 17 15 43 34 59 42 16 8 31 17 34 20 11 11 66 46 95 60 17 8
32 17 35 20 3 3 28 16 55 30 28 14 52 28 53 33 2 4 10 7 17 7 7 0 30 9 52 19
63 31 132 61 143 61 5 0 25 9 45 20 20 11 43 20 53 20 20 0 89 23 98 33 4 4
21 7 39 7 17 0 35 4 41 9 5 5 29 12 54 15 25 3 72 10 105 15 33 6 89 13 125
17 36 3 74 10 85 15 25 11 299 5 415 -9 168 -22 277 -40 305 -52 11 -4 47 -14
80 -21 33 -7 65 -15 70 -19 6 -3 30 -12 55 -19 25 -7 62 -22 83 -32 22 -10 47
-19 58 -19 10 0 19 -4 19 -10 0 -5 11 -10 25 -10 14 0 25 -3 25 -7 0 -10 49
-33 67 -33 8 0 23 -9 35 -20 12 -11 30 -20 40 -20 10 0 18 -4 18 -9 0 -5 17
-16 38 -24 21 -8 44 -22 51 -31 8 -9 17 -16 22 -16 16 0 49 -34 49 -50 0 -8
-259 -273 -575 -589 -316 -316 -575 -578 -575 -583 0 -4 -3 -8 -7 -8 -5 -1
-32 -22 -61 -48 l-52 -48 76 -77 c42 -42 80 -77 85 -77 5 0 9 -4 9 -8 0 -11
100 -112 110 -112 5 0 12 -9 15 -20 3 -11 13 -20 21 -20 8 0 14 -4 14 -8 0
-11 100 -112 110 -112 5 0 12 -9 15 -20 3 -11 13 -20 21 -20 8 0 14 -4 14 -8
0 -11 100 -112 110 -112 5 0 12 -9 15 -20 3 -11 11 -20 16 -20 6 0 22 -13 36
-30 36 -44 54 -40 110 22 6 7 70 71 142 142 72 71 131 133 131 138 0 4 4 8 9
8 10 0 151 141 151 152 0 4 4 8 9 8 10 0 151 141 151 152 0 4 4 8 9 8 10 0
151 141 151 152 0 4 4 8 9 8 10 0 151 141 151 152 0 4 4 8 9 8 10 0 151 141
151 152 0 4 4 8 9 8 10 0 151 141 151 152 0 4 4 8 9 8 10 0 151 141 151 152 0
4 4 8 9 8 10 0 151 141 151 152 0 4 4 8 9 8 10 0 151 141 151 152 0 4 4 8 9 8
10 0 151 141 151 152 0 4 4 8 9 8 10 0 151 141 151 152 0 4 4 8 9 8 11 0 141
131 141 143 0 14 -19 45 -43 70 -12 13 -29 33 -37 44 -68 93 -416 443 -439
443 -4 0 -20 14 -36 30 -16 17 -35 30 -42 30 -7 0 -18 9 -25 21 -7 11 -28 29
-46 41 l-33 20 -25 -23 c-13 -12 -77 -76 -142 -141 -67 -67 -125 -118 -136
-118 -11 0 -56 27 -102 60 -45 33 -87 60 -93 60 -6 0 -11 4 -11 9 0 5 -8 11
-17 14 -19 6 -75 38 -83 48 -5 5 -43 27 -186 105 -34 18 -120 56 -190 84 -71
28 -142 58 -158 66 -16 8 -37 14 -47 14 -10 0 -21 5 -24 10 -3 6 -15 10 -26
10 -10 0 -27 4 -37 9 -29 14 -87 31 -110 31 -11 0 -23 4 -26 9 -3 5 -20 11
-38 14 -18 3 -55 11 -83 17 -27 6 -75 14 -105 19 -105 13 -100 3 -100 226 l0
195 -58 0 c-32 0 -83 4 -113 9 -74 13 -296 17 -454 9z"/>
<path d="M3830 6709 c-51 -9 -113 -23 -180 -39 -25 -6 -67 -15 -95 -20 -27 -6
-70 -15 -95 -21 -25 -6 -64 -13 -87 -16 -24 -3 -43 -9 -43 -13 0 -4 -17 -10
-37 -13 -21 -3 -60 -11 -88 -17 -27 -6 -64 -14 -82 -17 -30 -5 -32 -8 -37 -57
-3 -28 -8 -100 -11 -161 -6 -115 -17 -199 -42 -325 -9 -41 -19 -95 -24 -120
-9 -44 -73 -255 -90 -295 -5 -11 -18 -45 -29 -75 -77 -204 -240 -454 -407
-626 -18 -18 -33 -40 -33 -47 0 -22 97 -117 120 -117 13 0 71 52 168 151 81
83 160 163 176 178 17 14 53 50 80 80 28 29 64 65 80 80 17 14 53 50 80 80 28
29 64 65 80 80 72 64 136 136 136 152 0 10 -9 42 -20 70 -18 46 -20 58 -9 108
13 66 29 94 78 139 56 50 87 62 163 62 76 0 124 -18 171 -66 37 -37 77 -127
77 -172 0 -53 -60 -181 -85 -182 -6 0 -16 -9 -23 -20 -7 -11 -21 -20 -31 -20
-11 0 -23 -4 -26 -10 -7 -11 -175 -14 -175 -2 0 7 -48 32 -62 32 -5 0 -40 -33
-78 -72 -39 -40 -73 -76 -77 -80 -24 -24 -150 -149 -158 -158 -5 -5 -41 -41
-80 -80 -38 -38 -74 -74 -80 -80 -5 -6 -40 -39 -77 -75 -38 -36 -68 -68 -68
-72 0 -4 -40 -47 -90 -95 -49 -48 -90 -92 -90 -98 0 -12 118 -130 130 -130 3
0 16 9 28 20 12 11 25 20 29 20 5 0 26 17 49 37 72 68 261 203 282 203 4 0 17
8 28 19 11 10 49 34 85 52 35 19 66 37 67 42 2 4 10 7 18 7 8 0 14 5 14 10 0
6 7 10 15 10 8 0 29 9 47 20 18 11 41 20 51 20 9 0 17 3 17 8 0 4 15 12 33 19
140 50 168 60 174 66 3 4 17 7 29 7 13 0 26 5 29 10 3 6 17 10 30 10 13 0 26
4 29 9 3 5 23 11 43 14 21 3 61 11 88 17 119 27 369 42 484 28 23 -3 26 2 44
82 10 47 25 108 32 135 28 107 45 192 45 228 0 20 5 37 10 37 6 0 10 11 10 25
0 13 9 59 19 102 43 177 44 182 29 201 -7 9 -37 40 -67 67 -30 28 -64 61 -75
74 -12 14 -48 50 -80 80 -32 31 -68 67 -80 80 -12 14 -48 50 -80 80 -32 31
-68 67 -80 80 -12 14 -48 50 -80 80 -32 31 -68 67 -80 80 -44 50 -107 111
-114 110 -4 -1 -27 -5 -52 -10z"/>
<path d="M6059 2361 c-101 -101 -214 -206 -289 -267 -30 -25 -57 -49 -124
-109 -6 -6 -36 -30 -66 -55 -68 -56 -107 -89 -134 -115 -12 -11 -34 -27 -49
-35 -16 -8 -51 -35 -78 -60 -28 -25 -71 -63 -96 -85 -25 -22 -54 -49 -64 -60
-51 -58 -69 -81 -69 -92 0 -7 -4 -13 -8 -13 -12 0 -34 -51 -26 -59 4 -3 9 0
11 7 3 6 13 12 23 12 10 0 20 4 22 8 2 5 26 23 53 42 28 18 52 37 55 40 3 3
27 22 55 40 64 44 82 58 123 98 19 17 37 32 41 32 6 0 41 27 116 90 23 19 56
46 74 60 88 66 360 331 411 400 14 18 30 38 35 45 24 26 101 174 93 179 -2 2
-51 -45 -109 -103z"/>
<path d="M7035 1838 c-8 -18 -26 -52 -40 -76 -14 -23 -25 -48 -25 -56 0 -15
42 -56 58 -56 7 0 17 -9 24 -20 7 -11 17 -20 21 -20 15 0 47 43 68 89 17 37
18 49 8 80 -14 43 -56 91 -81 91 -10 0 -24 -13 -33 -32z"/>
<path d="M1330 1679 c0 -23 -42 -69 -63 -69 -13 0 -42 -20 -71 -50 -43 -44
-54 -50 -91 -50 -22 0 -46 5 -52 11 -8 8 -23 5 -54 -10 -23 -12 -46 -21 -50
-21 -5 0 -19 -10 -32 -22 -45 -44 -87 -78 -95 -78 -5 0 -14 -11 -20 -25 -6
-14 -16 -25 -21 -25 -5 0 -31 -33 -59 -74 -103 -152 -116 -320 -27 -366 16 -8
38 -23 49 -32 11 -10 27 -18 36 -18 9 0 24 -16 33 -35 19 -40 11 -75 -34 -141
-32 -47 -137 -144 -156 -144 -7 0 -13 -4 -13 -10 0 -5 -9 -10 -20 -10 -11 0
-20 -4 -20 -9 0 -15 -59 -23 -192 -28 -80 -2 -128 0 -128 6 0 5 -14 13 -32 16
-37 8 -81 54 -107 110 -55 117 -41 254 45 455 9 19 22 50 30 68 8 18 14 37 14
43 0 6 9 29 19 52 24 54 51 118 51 123 0 29 -58 -76 -114 -206 -6 -14 -13 -27
-16 -30 -14 -14 -110 -289 -110 -317 0 -12 -4 -25 -10 -28 -16 -10 -12 -271 4
-333 14 -50 83 -172 98 -172 4 0 13 -6 20 -12 8 -7 24 -19 36 -25 29 -17 216
-17 262 0 64 24 120 52 120 59 0 5 6 8 14 8 15 0 76 56 76 70 0 6 7 10 15 10
8 0 15 4 15 9 0 5 14 24 30 42 17 19 34 39 39 45 18 22 101 192 101 206 0 8 3
18 7 22 24 24 66 259 56 316 -9 52 -26 72 -92 110 -38 21 -64 43 -71 61 -11
25 -9 32 16 66 16 21 33 41 39 45 5 3 21 16 34 27 13 12 28 21 32 21 4 0 14 6
21 13 17 16 98 37 98 26 0 -5 16 -9 35 -9 25 0 54 12 96 40 33 22 64 40 67 40
4 0 14 9 22 20 8 11 21 20 30 20 23 0 74 60 93 111 19 50 22 89 7 89 -5 0 -10
-5 -10 -11z"/>
<path d="M4240 1667 c-21 -18 -64 -91 -101 -167 -32 -68 -33 -70 -21 -82 21
-21 13 -35 -37 -67 -27 -17 -58 -39 -69 -49 -54 -46 -63 -52 -71 -52 -6 0 -12
-8 -15 -18 -4 -11 -17 -29 -31 -42 -21 -20 -34 -23 -97 -21 -63 1 -76 -1 -99
-21 -21 -20 -89 -112 -89 -122 0 -7 -83 -142 -98 -158 -16 -19 -72 -25 -72 -8
0 6 -9 10 -20 10 -11 0 -20 -4 -20 -10 0 -5 -7 -10 -15 -10 -8 0 -24 -9 -35
-20 -11 -11 -26 -20 -33 -20 -7 0 -23 -9 -35 -20 -20 -19 -65 -47 -123 -77
-15 -7 -32 -20 -39 -28 -7 -8 -21 -15 -31 -15 -11 0 -19 -4 -19 -10 0 -5 -9
-10 -19 -10 -11 0 -21 -3 -23 -7 -4 -10 -131 -73 -146 -73 -6 0 -27 -9 -47
-20 -20 -11 -44 -20 -55 -20 -11 0 -20 -4 -20 -8 0 -4 -21 -13 -47 -21 -27 -7
-57 -16 -68 -21 -11 -4 -40 -14 -65 -21 -25 -7 -49 -16 -55 -20 -5 -3 -39 -14
-75 -24 -36 -9 -81 -21 -100 -27 -19 -6 -55 -12 -80 -15 -25 -3 -49 -9 -54
-14 -6 -5 -36 -9 -68 -9 -32 0 -58 -4 -58 -10 0 -6 -53 -10 -139 -10 -83 0
-142 -4 -146 -10 -8 -13 -148 -13 -161 -1 -5 5 -43 12 -84 14 -41 3 -95 10
-120 17 -25 6 -60 14 -78 17 -18 3 -35 9 -38 14 -3 5 -14 9 -25 9 -10 0 -19 5
-19 10 0 6 -9 10 -20 10 -11 0 -20 5 -20 10 0 6 -4 10 -10 10 -27 0 -84 74
-107 140 -7 19 -13 58 -13 85 0 48 41 273 54 293 4 6 2 13 -4 17 -18 11 -78
-143 -106 -270 -11 -54 -76 -188 -127 -265 -34 -50 -207 -223 -286 -285 -28
-22 -51 -43 -51 -47 0 -12 38 -10 45 2 3 6 24 10 45 10 21 0 42 5 45 10 3 6
15 10 25 10 24 0 84 33 114 63 28 28 68 91 86 137 8 19 20 41 27 48 14 15 33
8 33 -13 0 -7 14 -41 31 -75 34 -64 129 -160 160 -160 10 0 21 -5 24 -10 3 -6
19 -10 36 -10 16 0 29 -4 29 -10 0 -5 13 -10 28 -10 15 0 32 -4 38 -9 31 -31
611 -31 622 0 2 5 28 9 57 9 30 0 64 4 77 9 13 5 50 14 83 21 33 7 69 16 80
20 11 5 43 14 70 21 28 6 54 16 59 20 6 5 19 9 31 9 12 0 25 4 31 8 5 5 28 15
52 22 23 7 42 17 42 22 0 4 11 8 24 8 13 0 50 13 82 29 32 16 80 39 107 51 26
13 47 27 47 32 0 4 9 8 20 8 11 0 20 3 20 8 0 4 34 27 75 51 41 25 84 53 95
63 10 10 23 18 28 18 5 0 17 9 27 20 10 11 22 20 27 20 5 0 23 13 40 29 18 17
43 36 57 43 13 7 40 29 60 49 20 20 46 41 58 48 26 13 95 15 109 2 17 -16 84
-51 99 -51 16 0 36 15 105 78 26 23 52 42 59 42 6 0 11 5 11 10 0 6 15 10 34
10 19 0 37 4 40 9 6 8 22 12 129 27 65 9 120 57 161 139 65 131 53 185 -41
185 -27 0 -54 -5 -61 -12 -18 -18 -24 -4 -11 25 6 13 23 31 38 38 14 7 37 20
51 29 14 9 58 27 98 40 40 13 75 27 78 32 3 4 13 8 22 8 25 0 132 56 169 87
64 57 100 172 60 195 -9 4 -23 15 -31 23 -8 8 -19 15 -23 15 -5 0 -28 9 -51
20 -54 26 -100 25 -132 -3z m-212 -594 c18 -4 22 -12 22 -43 0 -33 -5 -42 -42
-69 -23 -17 -47 -31 -52 -31 -6 0 -22 -9 -36 -20 -14 -11 -35 -20 -48 -20 -12
0 -31 -5 -41 -12 -10 -6 -26 -8 -34 -5 -15 5 -13 12 9 55 47 91 136 169 179
156 11 -3 30 -8 43 -11z m-220 -23 c28 -26 28 -34 -1 -62 -23 -23 -36 -33
-146 -115 -53 -40 -102 -55 -115 -35 -7 12 52 123 80 150 13 13 24 27 24 32 0
6 6 10 13 10 7 0 19 9 27 20 20 28 88 27 118 0z"/>
<path d="M5997 1455 c-19 -14 -77 -127 -77 -150 0 -7 15 -25 33 -40 17 -14 40
-33 50 -41 25 -20 30 -18 60 29 36 54 43 83 26 104 -12 15 -12 16 4 10 16 -6
16 -4 2 21 -18 33 -61 82 -72 82 -4 0 -16 -7 -26 -15z"/>
<path d="M7368 1345 c-10 -13 -18 -27 -18 -30 0 -3 -13 -23 -29 -43 -16 -20
-36 -57 -44 -82 -43 -128 -95 -219 -128 -220 -8 0 -24 -10 -35 -22 -25 -28
-76 -68 -115 -89 -16 -9 -35 -22 -43 -29 -20 -16 -139 -79 -256 -135 -52 -25
-103 -50 -112 -55 -10 -6 -24 -10 -33 -10 -8 0 -30 -9 -50 -20 -20 -11 -44
-20 -55 -20 -10 0 -21 -4 -24 -9 -3 -5 -18 -11 -33 -14 -16 -3 -62 -15 -103
-27 -128 -38 -154 -43 -350 -72 -115 -17 -527 -17 -600 0 -30 7 -70 16 -87 19
-18 3 -33 9 -33 14 0 5 -9 9 -19 9 -11 0 -23 5 -26 10 -3 6 -14 10 -23 10 -17
0 -51 25 -103 75 -14 14 -38 50 -53 80 -27 55 -27 56 -23 243 4 172 18 344 32
400 9 38 -12 24 -34 -23 -12 -25 -21 -49 -21 -55 0 -8 -29 -78 -51 -122 -5
-10 -9 -70 -9 -134 0 -63 -4 -123 -10 -133 -5 -10 -12 -83 -15 -162 -6 -170
-19 -294 -33 -329 -5 -14 -21 -37 -35 -52 -22 -23 -34 -28 -76 -28 -45 0 -52
3 -81 37 -30 37 -31 41 -29 126 1 49 7 105 14 125 7 20 11 41 8 46 -9 14 -38
-31 -103 -161 -33 -67 -69 -127 -80 -133 -11 -6 -20 -16 -20 -22 0 -6 -29 -40
-65 -75 -61 -59 -79 -72 -180 -126 -22 -12 -44 -25 -50 -30 -5 -4 -22 -16 -37
-28 -32 -24 -38 -45 -9 -29 11 5 33 10 50 10 31 0 141 31 199 57 46 20 102 72
102 94 0 10 5 19 11 19 6 0 17 7 26 15 18 19 33 11 33 -19 0 -25 13 -69 37
-126 12 -28 24 -39 55 -48 29 -9 44 -10 51 -3 6 6 18 11 26 11 38 1 131 111
131 155 0 15 4 24 10 20 6 -3 10 1 10 10 0 8 4 23 9 33 14 28 28 64 42 112 7
25 18 48 23 52 10 7 46 -24 46 -39 0 -35 162 -143 214 -143 13 0 26 -3 30 -7
4 -4 28 -13 54 -20 56 -14 552 -18 552 -4 0 5 26 11 58 14 31 3 80 10 107 17
28 6 66 13 85 16 33 5 63 15 102 35 10 5 27 9 37 9 11 0 23 4 26 10 3 5 19 10
36 10 16 0 29 5 29 10 0 6 7 10 15 10 8 0 23 4 33 9 74 37 106 51 118 51 8 0
14 3 14 8 0 4 15 13 33 20 60 25 82 36 124 64 23 15 47 28 53 28 6 0 20 9 32
20 12 11 28 20 35 20 7 0 13 5 13 10 0 6 5 10 11 10 5 0 37 18 69 40 32 22 61
40 64 40 4 0 14 8 24 18 24 22 58 50 107 87 22 16 64 53 94 82 30 29 56 53 58
53 15 0 113 128 113 148 0 5 6 15 14 21 13 11 33 66 55 151 34 128 39 150 33
154 -4 2 -15 -7 -24 -19z"/>
<path d="M6123 1257 c-23 -33 -44 -78 -39 -86 3 -4 -3 -16 -14 -26 -33 -30
-25 -66 23 -107 39 -32 47 -35 67 -25 27 14 69 90 70 125 0 34 -24 73 -63 104
-26 20 -37 24 -44 15z"/>
<path d="M5892 1218 c-5 -7 -13 -24 -17 -38 -4 -14 -16 -36 -26 -49 -11 -13
-19 -32 -19 -42 0 -9 -5 -19 -11 -21 -5 -2 -7 -10 -4 -18 8 -20 88 -80 107
-80 37 0 83 92 73 149 -3 22 -20 52 -40 74 -37 40 -47 44 -63 25z"/>
<path d="M2263 1033 c-10 -21 -21 -40 -24 -43 -4 -3 -16 -24 -28 -47 -21 -43
-27 -73 -13 -73 4 0 23 -14 42 -30 53 -46 79 -38 113 33 23 48 26 63 18 92 -8
32 -34 64 -73 94 -15 11 -20 8 -35 -26z"/>
<path d="M7448 1033 c-9 -21 -26 -69 -38 -108 -12 -38 -27 -86 -33 -105 -6
-19 -12 -91 -13 -160 -1 -163 -29 -387 -60 -492 -3 -11 0 -18 9 -18 15 0 41
50 84 165 49 131 55 153 58 238 2 45 6 127 9 182 10 178 13 335 6 335 -3 0
-13 -17 -22 -37z"/>
<path d="M4215 870 c-3 -11 -11 -20 -16 -20 -5 0 -9 -6 -9 -13 0 -8 -13 -40
-29 -73 -37 -78 -50 -121 -49 -168 0 -21 -4 -41 -9 -45 -19 -14 -66 -138 -57
-152 3 -5 0 -16 -6 -24 -19 -23 7 -98 39 -113 31 -15 68 -16 76 -2 3 6 14 10
25 10 10 0 27 10 38 23 71 77 92 103 92 113 0 6 6 17 14 23 8 7 17 28 21 49 4
20 10 42 15 47 4 6 13 43 20 82 16 90 1 168 -42 216 -15 18 -28 35 -28 40 0 4
-7 7 -15 7 -8 0 -15 5 -15 10 0 6 -13 10 -29 10 -21 0 -32 -6 -36 -20z m-35
-290 c0 -5 7 -10 15 -10 8 0 15 -4 15 -10 0 -5 5 -10 11 -10 6 0 19 -10 30
-22 48 -59 -1 -138 -86 -138 -55 0 -81 30 -71 83 10 52 86 147 86 107z"/>
<path d="M7699 785 c-7 -17 -20 -41 -29 -55 -9 -14 -31 -58 -48 -98 l-32 -72
41 -38 c65 -59 99 -116 99 -165 0 -39 -5 -47 -69 -107 -37 -36 -96 -90 -130
-120 -33 -30 -61 -58 -61 -63 0 -10 74 3 78 14 2 5 15 9 28 9 13 0 24 4 24 9
0 5 8 11 18 14 52 17 137 88 157 132 47 104 59 136 77 212 19 76 19 90 8 139
-7 30 -17 54 -22 54 -4 0 -8 8 -8 18 0 9 -27 46 -59 82 l-59 65 -13 -30z"/>
</g>
</svg>
