<?xml version="1.0" standalone="no"?>
<!DOCTYPE svg PUBLIC "-//W3C//DTD SVG 20010904//EN"
 "http://www.w3.org/TR/2001/REC-SVG-20010904/DTD/svg10.dtd">
<svg version="1.0" xmlns="http://www.w3.org/2000/svg"
 width="1283.000000pt" height="1640.000000pt" viewBox="0 0 1283.000000 1640.000000"
 preserveAspectRatio="xMidYMid meet">
<metadata>
Created by potrace 1.15, written by Peter Selinger 2001-2017
</metadata>
<g transform="translate(0.000000,1640.000000) scale(0.100000,-0.100000)"
fill="#000000" stroke="none">
<path d="M3890 16203 c-7 -32 -27 -123 -45 -203 -34 -147 -75 -326 -140 -615
-20 -88 -42 -187 -50 -220 -8 -33 -26 -114 -41 -180 -31 -139 -23 -122 -170
-372 -63 -106 -166 -282 -230 -390 -364 -616 -453 -768 -507 -858 l-59 -100
336 -330 336 -330 0 -111 c0 -95 3 -113 18 -127 17 -16 86 -17 785 -17 l767 0
0 150 0 149 312 309 311 308 -203 345 c-112 189 -289 490 -395 669 -106 179
-224 379 -263 446 -77 131 -74 124 -152 469 -22 99 -56 248 -75 330 -18 83
-50 222 -70 310 -20 88 -50 220 -67 293 l-30 132 -178 0 -179 0 -11 -57z m140
-1147 l0 -1093 -45 -13 c-100 -28 -197 -122 -230 -221 -25 -73 -17 -217 14
-278 34 -65 106 -137 170 -168 49 -25 68 -28 151 -28 82 0 103 4 150 26 82 39
135 90 172 167 30 61 33 74 33 162 0 83 -3 102 -27 150 -47 95 -154 182 -240
196 l-38 7 0 1094 c0 851 3 1094 12 1091 7 -3 24 -67 40 -149 15 -79 41 -205
58 -279 17 -74 40 -173 51 -220 10 -47 37 -166 59 -265 22 -99 55 -241 72
-315 l31 -134 160 -271 c88 -148 187 -317 222 -375 34 -58 161 -274 283 -481
l221 -376 -287 -286 -287 -287 -692 0 -692 0 -290 285 -289 286 130 222 c72
122 160 272 196 332 36 61 79 135 97 165 18 30 92 156 165 280 266 450 298
507 309 546 10 39 66 288 102 459 10 50 26 117 34 150 8 33 47 204 85 380 60
271 78 334 98 335 1 0 2 -492 2 -1094z m127 -1201 c143 -42 223 -189 178 -326
-24 -71 -93 -140 -164 -164 -204 -67 -399 145 -312 340 36 81 84 122 176 151
53 17 62 17 122 -1z m613 -1340 l0 -65 -665 0 -665 0 0 65 0 65 665 0 665 0 0
-65z"/>
<path d="M6435 13991 c-27 -10 -95 -34 -150 -54 -198 -69 -371 -157 -560 -284
-99 -66 -199 -138 -223 -159 l-43 -39 46 -63 46 -63 57 46 c31 26 75 60 97 76
22 16 49 37 59 45 48 40 168 111 279 164 119 58 347 140 386 140 37 0 371
-197 1091 -644 762 -473 909 -572 1183 -791 222 -178 342 -288 622 -569 420
-421 681 -743 964 -1190 202 -319 431 -737 519 -946 139 -332 195 -629 191
-1024 -5 -476 -79 -828 -250 -1173 -124 -252 -248 -420 -500 -678 -131 -135
-162 -173 -193 -235 -35 -73 -69 -207 -61 -246 23 -124 28 -136 62 -152 46
-22 58 -12 100 85 34 80 38 85 122 147 47 35 97 69 111 76 47 24 215 165 334
280 407 395 635 851 725 1457 70 465 48 813 -74 1193 -71 218 -174 436 -428
900 -181 332 -263 464 -423 677 -242 321 -414 515 -793 893 -675 673 -1130
1021 -1946 1487 -432 247 -807 443 -1112 581 -101 45 -184 82 -185 81 -2 0
-25 -9 -53 -18z"/>
<path d="M6285 13641 c-269 -93 -449 -191 -580 -313 l-60 -56 40 -41 c21 -23
42 -41 45 -41 3 0 50 36 105 80 121 97 299 189 492 253 72 24 139 49 147 57
22 17 20 63 -2 83 -27 25 -65 20 -187 -22z"/>
<path d="M5258 12893 l-308 -307 0 -118 0 -118 65 0 65 0 1 98 1 97 246 239
c136 132 263 258 283 280 l37 41 -42 48 -41 47 -307 -307z"/>
<path d="M7287 12793 c-12 -11 -8 -25 6 -20 36 12 507 -332 833 -610 198 -168
619 -590 776 -779 319 -382 557 -739 737 -1109 174 -355 299 -727 338 -1005
24 -161 23 -522 -1 -690 -36 -255 -124 -537 -237 -761 -27 -53 -49 -101 -49
-107 0 -15 98 -27 220 -27 77 0 129 6 196 23 78 20 100 31 160 78 62 50 74 66
121 158 119 237 179 492 198 846 9 158 -28 418 -80 575 -204 606 -582 1268
-992 1735 -187 212 -544 552 -818 777 -337 276 -781 577 -1253 847 -137 78
-144 81 -155 69z"/>
<path d="M3110 9108 l0 -3143 -80 -80 -80 -80 315 -315 315 -315 160 160 160
160 0 3377 0 3378 -395 0 -395 0 0 -3142z"/>
<path d="M3940 8863 l0 -3388 -165 -164 -166 -164 28 -29 27 -29 178 178 178
178 0 3402 0 3403 -40 0 -40 0 0 -3387z"/>
<path d="M4190 8812 l0 -3437 -300 -300 -300 -300 -60 60 -60 59 62 63 62 63
-24 25 c-13 14 -26 25 -30 25 -9 0 -180 -168 -180 -176 0 -3 51 -57 114 -119
l113 -113 342 342 341 341 0 3453 0 3452 -40 0 -40 0 0 -3438z"/>
<path d="M4310 8787 l0 -3462 -362 -362 -363 -362 -143 137 c-79 75 -143 141
-142 147 0 5 47 57 105 115 l105 105 -313 313 -312 312 -400 -400 -399 -400
694 -697 c381 -384 769 -774 862 -868 l168 -170 658 657 657 658 -3 125 -3
125 -115 0 -114 0 0 545 0 545 110 0 110 0 0 3200 0 3200 -400 0 -400 0 0
-3463z"/>
<path d="M5188 9608 c-2 -1454 -1 -2809 1 -3013 4 -404 4 -405 61 -405 57 0
57 1 61 405 2 204 3 1559 2 3013 l-3 2642 -60 0 -60 0 -2 -2642z"/>
<path d="M5190 5915 l0 -145 -110 0 -110 0 0 -465 0 -465 109 0 109 0 6 -31
c3 -17 6 -83 6 -145 l0 -114 153 0 c83 0 1312 -2 2730 -4 1417 -3 2577 -3
2577 -1 0 2 -51 31 -112 66 -437 243 -543 335 -608 524 -63 184 -20 381 118
541 47 55 78 80 134 109 40 21 93 52 118 70 25 17 109 68 188 114 78 45 142
84 142 87 0 2 -1226 4 -2725 4 l-2725 0 0 -145z m4996 -90 c-17 -13 -143 -15
-1008 -15 -981 0 -988 0 -988 -20 0 -20 7 -20 958 -20 621 0 952 -4 942 -10
-9 -6 -313 -10 -807 -10 -786 0 -793 0 -793 -20 0 -20 7 -20 771 -20 511 0
768 -3 764 -10 -4 -7 -245 -10 -691 -10 -677 0 -684 0 -684 -20 0 -20 7 -20
665 -20 437 0 665 -3 665 -10 0 -7 -253 -10 -740 -10 -733 0 -740 0 -740 -20
0 -20 7 -20 720 -20 473 0 720 -3 720 -10 0 -7 -242 -10 -705 -10 -698 0 -705
0 -705 -20 0 -20 7 -20 696 -20 461 0 693 -3 689 -10 -4 -7 -283 -10 -803 -10
-856 0 -1022 -4 -1022 -27 0 -11 152 -13 900 -13 593 0 900 -3 900 -10 0 -6
-125 -10 -355 -10 -348 0 -355 0 -355 -20 0 -20 7 -20 350 -20 227 0 350 -4
350 -10 0 -6 -123 -10 -350 -10 -343 0 -350 0 -350 -20 0 -20 7 -20 345 -20
223 0 345 -4 345 -10 0 -6 -122 -10 -345 -10 -249 0 -345 -3 -345 -11 0 -8
-79 -9 -295 -4 -268 7 -295 6 -295 -9 0 -15 58 -16 640 -16 567 0 640 -2 640
-15 0 -14 -39 -15 -312 -15 -945 2 -998 1 -998 -15 0 -13 80 -15 660 -15 580
0 660 -2 660 -15 0 -13 -77 -15 -630 -15 -553 0 -630 -2 -630 -15 0 -13 77
-15 635 -15 558 0 635 -2 635 -15 0 -13 -72 -15 -585 -15 -513 0 -585 -2 -585
-15 0 -13 36 -15 263 -15 698 -1 920 -5 924 -17 4 -10 -108 -13 -536 -13 -474
0 -541 -2 -541 -15 0 -16 -9 -16 756 -15 294 0 343 -2 354 -15 11 -13 -42 -15
-504 -15 -509 0 -516 0 -516 -20 0 -20 7 -20 530 -20 347 0 530 -3 530 -10 0
-7 -182 -10 -526 -10 -495 0 -525 -1 -522 -17 3 -17 38 -18 551 -21 353 -1
547 -6 547 -12 0 -7 -192 -10 -546 -10 -514 0 -545 -1 -542 -17 3 -17 40 -18
573 -21 359 -1 573 -6 579 -12 7 -7 -186 -10 -567 -10 -570 0 -577 0 -577 -20
0 -20 7 -20 608 -20 374 0 613 -4 622 -10 15 -9 -1276 -13 -2865 -9 -379 2
-904 2 -1165 0 -266 -1 -490 3 -510 8 -22 6 398 9 1133 10 1160 1 1167 1 1167
21 0 20 -7 20 -1229 20 -809 0 -1232 3 -1236 10 -4 7 340 10 1024 10 567 0
1031 4 1031 8 0 31 -22 32 -1074 32 -661 0 -1057 4 -1066 10 -10 6 285 10 843
10 850 0 857 0 857 20 0 20 -7 20 -879 20 -576 0 -882 3 -886 10 -4 7 298 10
898 10 899 0 905 0 900 20 -5 20 -16 20 -921 22 -716 2 -916 6 -919 15 -4 10
101 13 489 13 1501 0 1428 -1 1428 15 0 13 -115 15 -975 15 -857 0 -975 2
-975 15 0 13 65 15 508 15 1581 0 1512 -1 1512 15 0 13 -123 15 -1022 17 -806
2 -1022 6 -1026 16 -3 9 233 12 1157 12 1025 0 1161 2 1161 15 0 16 62 15
-1802 15 -461 0 -528 2 -528 15 0 13 144 15 1205 15 1064 0 1205 2 1205 15 0
16 59 15 -1887 15 -466 0 -533 2 -533 15 0 13 144 15 1210 15 1203 0 1210 0
1210 20 0 20 -7 20 -1210 20 -800 0 -1210 3 -1210 10 0 7 410 10 1210 10 1203
0 1210 0 1210 20 0 20 -7 20 -1205 20 -797 0 -1205 3 -1205 10 0 7 260 10 760
10 753 0 760 0 760 20 0 20 -7 20 -756 20 -501 0 -753 3 -749 10 4 7 277 10
786 10 772 0 779 0 779 20 0 20 -7 20 -776 20 -514 0 -773 3 -769 10 4 7 368
10 1061 10 1047 0 1054 0 1054 20 0 20 -7 20 -1040 20 -687 0 -1040 3 -1040
10 0 7 340 10 1000 10 993 0 1000 0 1000 20 0 20 -7 20 -981 20 -651 0 -978 3
-974 10 4 7 341 10 980 10 968 0 973 0 968 20 -5 20 -14 20 -951 20 -627 0
-943 3 -936 10 6 6 300 11 819 12 712 3 810 5 810 18 0 13 -96 16 -780 20
-429 3 -772 8 -762 13 10 4 340 7 733 7 707 0 714 0 714 20 0 20 -7 20 -657
20 -361 0 -654 3 -651 6 3 3 28 8 54 12 26 4 1058 8 2293 10 2003 2 2244 1
2227 -13z"/>
<path d="M10858 3923 c-25 -30 -156 -246 -167 -276 -21 -55 -15 -72 37 -95 26
-12 54 -23 63 -24 29 -6 110 45 130 81 11 20 36 59 55 86 64 92 59 119 -31
193 -35 28 -65 52 -68 52 -2 0 -11 -8 -19 -17z"/>
<path d="M5113 3847 c-16 -18 -40 -51 -53 -73 -13 -21 -41 -61 -63 -88 -40
-52 -60 -86 -71 -124 -6 -19 3 -32 55 -82 35 -33 69 -60 77 -60 24 0 129 120
163 187 36 72 35 94 -10 190 -39 82 -60 93 -98 50z"/>
<path d="M10913 3458 c-36 -57 -69 -107 -74 -112 -5 -5 -27 8 -53 32 -24 22
-63 50 -86 61 l-43 20 -27 -29 c-15 -16 -37 -49 -49 -72 -11 -24 -45 -86 -76
-138 -30 -52 -55 -103 -55 -115 0 -21 20 -35 123 -88 55 -27 59 -28 77 -12 10
9 24 31 31 48 15 37 87 147 96 147 4 0 44 -20 90 -45 45 -25 89 -45 98 -45 8
0 20 10 26 23 6 12 42 74 80 138 42 71 69 128 69 146 0 18 -12 41 -32 64 -32
34 -98 79 -119 79 -5 0 -39 -46 -76 -102z"/>
<path d="M11903 3492 c-17 -11 -179 -287 -187 -318 -9 -34 2 -46 66 -68 29
-10 69 -31 89 -47 34 -26 38 -27 52 -11 8 9 24 35 35 57 11 22 43 78 71 124
56 92 64 137 36 191 -23 44 -131 92 -162 72z"/>
<path d="M5223 3457 c-11 -7 -40 -37 -63 -67 -69 -88 -122 -140 -146 -140 -13
0 -44 22 -78 55 -63 62 -98 71 -133 33 -32 -35 -163 -236 -180 -276 -25 -60
-21 -66 120 -169 16 -13 35 -23 42 -23 26 0 102 70 150 138 64 90 75 91 157
12 33 -33 64 -60 67 -60 34 2 221 247 236 311 8 33 -12 75 -62 130 -49 54 -82
71 -110 56z"/>
<path d="M8563 3328 c-12 -13 -37 -54 -56 -93 -19 -38 -53 -104 -76 -145 -53
-98 -53 -121 -2 -145 22 -9 54 -32 72 -51 18 -19 38 -34 43 -34 16 0 83 95
122 171 48 96 59 147 41 190 -17 40 -93 129 -111 129 -7 0 -22 -10 -33 -22z"/>
<path d="M6221 3311 c-11 -11 -35 -44 -55 -75 -29 -45 -41 -56 -62 -56 -72 0
-169 -109 -254 -285 -62 -130 -79 -148 -152 -164 -26 -6 -51 -20 -63 -35 -12
-15 -28 -26 -36 -26 -8 0 -36 -20 -61 -45 -52 -50 -71 -55 -104 -24 -20 19
-26 20 -61 9 -44 -14 -119 -51 -177 -87 -64 -40 -270 -254 -306 -320 -41 -72
-78 -123 -91 -123 -5 0 -9 19 -9 43 0 31 -6 49 -25 70 -50 53 -164 27 -222
-50 -15 -21 -49 -63 -74 -93 -26 -30 -59 -75 -75 -99 -51 -77 -58 -88 -109
-161 -74 -105 -106 -160 -93 -160 15 0 86 75 123 130 54 82 118 166 179 237
65 76 142 81 196 13 38 -49 32 -70 -38 -119 -29 -20 -94 -66 -146 -103 -116
-85 -277 -183 -426 -261 -63 -32 -126 -67 -140 -76 -14 -10 -47 -25 -75 -35
-27 -10 -72 -28 -100 -40 -27 -13 -68 -29 -90 -36 -22 -7 -80 -27 -130 -45
-49 -18 -124 -40 -165 -49 -84 -19 -140 -33 -185 -46 -44 -12 -177 -37 -275
-50 -47 -6 -112 -16 -145 -22 -96 -16 -489 -22 -652 -9 -292 24 -524 83 -678
175 -215 127 -305 216 -324 320 -19 101 -14 144 25 236 19 47 37 99 39 115 2
17 12 58 21 92 20 76 15 98 -24 89 -38 -9 -67 -47 -116 -151 -49 -104 -62
-137 -111 -296 -36 -116 -96 -232 -153 -293 -15 -15 -70 -59 -122 -96 -104
-74 -144 -126 -138 -181 5 -51 27 -57 94 -24 33 16 70 33 83 39 14 6 42 29 64
51 35 36 145 177 168 215 14 24 29 -7 29 -65 1 -74 31 -174 70 -239 42 -69
173 -198 256 -251 98 -64 223 -111 354 -135 25 -4 86 -16 135 -25 73 -14 151
-18 420 -19 226 -1 347 3 385 11 30 7 116 21 190 32 75 11 172 31 215 45 72
22 114 34 250 68 22 5 63 20 90 33 28 14 79 32 115 41 36 9 94 31 130 49 36
18 92 43 124 56 33 12 98 45 143 71 46 26 86 48 88 48 2 0 32 20 67 44 35 23
112 72 171 107 187 111 222 133 254 160 21 18 53 30 93 38 34 5 67 14 74 19
26 21 127 72 207 105 140 58 249 130 249 164 0 8 26 53 58 101 32 48 67 110
77 137 11 28 25 61 31 73 15 30 4 72 -32 119 -30 39 -59 53 -115 53 -26 0 -39
4 -39 14 0 7 35 42 78 76 98 81 92 77 128 84 26 6 37 2 58 -17 52 -48 108 -44
191 13 24 17 48 30 54 30 5 0 30 17 54 38 24 21 69 50 100 65 93 46 204 178
257 308 16 39 36 79 46 90 19 22 59 24 114 8 47 -14 54 -10 125 70 l58 65 -6
105 c-4 85 -8 107 -23 118 -24 17 -31 16 -53 -6z m-1181 -1289 c25 -10 46 -24
48 -33 1 -8 -14 -39 -35 -68 -41 -58 -153 -142 -298 -221 l-80 -44 19 29 c10
17 31 46 46 65 47 59 74 122 76 173 3 55 1 53 57 89 50 32 102 35 167 10z"/>
<path d="M11505 3264 c-9 -9 -44 -58 -77 -108 -63 -93 -159 -221 -234 -311
-23 -27 -70 -87 -105 -132 -35 -45 -109 -137 -164 -204 -55 -67 -117 -143
-137 -168 -21 -25 -69 -87 -108 -138 -39 -51 -74 -95 -79 -98 -6 -3 -62 -74
-125 -158 -175 -230 -349 -440 -378 -457 -15 -8 -30 -11 -34 -7 -5 4 0 49 9
100 10 51 22 117 27 147 26 148 42 224 66 325 15 61 28 133 28 160 1 47 -1 50
-26 53 -33 4 -50 -25 -108 -190 -59 -165 -93 -307 -160 -663 -16 -82 -38 -195
-50 -250 -51 -234 -62 -409 -34 -505 21 -72 39 -96 93 -128 40 -24 57 -27 131
-27 78 0 90 3 145 33 123 69 174 140 234 330 20 64 53 154 72 199 l34 82 45 1
c137 1 212 26 386 125 72 41 111 61 224 114 46 21 87 52 138 103 77 77 113
138 143 241 9 34 24 81 33 104 23 63 36 157 36 274 0 94 -2 108 -21 125 -15
14 -24 16 -37 8 -20 -13 -158 -264 -171 -311 -6 -22 -5 -49 5 -85 7 -29 14
-75 14 -102 0 -46 -3 -52 -53 -103 -49 -48 -58 -53 -99 -53 -37 0 -49 -5 -78
-35 -22 -22 -43 -35 -60 -35 -16 0 -43 -14 -67 -35 -23 -19 -49 -35 -59 -35
-9 0 -50 -16 -90 -35 -98 -47 -124 -46 -185 9 -54 49 -124 71 -253 80 -37 3
-71 7 -73 10 -3 3 26 40 65 83 38 43 98 109 132 148 100 112 351 413 425 510
38 50 82 106 99 126 66 76 302 394 380 512 87 132 152 252 162 305 14 69 -21
106 -61 66z m-1215 -1986 c89 -10 97 -13 127 -46 17 -18 33 -42 36 -52 13 -50
-98 -187 -185 -228 -94 -44 -210 -24 -253 42 -39 59 -42 228 -5 246 105 51
137 56 280 38z"/>
<path d="M11316 3208 c-13 -18 -63 -98 -111 -178 -48 -80 -131 -207 -184 -282
-53 -76 -111 -158 -128 -184 -36 -51 -41 -66 -18 -57 38 14 310 387 498 684
35 55 -16 70 -57 17z"/>
<path d="M3675 2876 c-44 -23 -109 -54 -145 -70 -36 -16 -87 -39 -115 -51 -59
-27 -83 -37 -150 -60 -27 -10 -68 -26 -90 -35 -22 -10 -58 -24 -80 -33 -307
-117 -485 -203 -639 -309 -84 -58 -116 -95 -167 -194 -45 -86 -47 -104 -19
-176 11 -29 20 -66 20 -82 0 -33 -60 -118 -109 -154 -42 -31 -67 -70 -54 -83
16 -16 47 4 122 75 66 64 126 138 154 193 19 36 22 124 7 188 -7 30 -6 45 4
60 13 20 185 115 207 115 10 0 45 15 166 71 34 16 67 29 73 29 6 0 18 4 28 10
9 5 53 23 97 41 44 17 96 38 115 47 19 8 63 25 97 37 34 12 73 29 87 38 14 10
30 17 36 17 6 0 40 14 75 30 35 17 68 30 73 30 4 0 29 13 54 29 25 16 59 32
76 36 30 6 122 78 122 96 0 5 10 20 22 34 26 31 58 97 52 107 -9 15 -39 6
-119 -36z"/>
<path d="M7801 2613 c-25 -22 -81 -155 -81 -194 0 -32 31 -59 67 -59 29 0 29
-7 -1 -51 -21 -31 -71 -70 -158 -123 -58 -34 -21 -57 50 -31 60 22 146 110
190 195 56 106 53 214 -5 260 -31 24 -35 25 -62 3z"/>
<path d="M9115 2617 c-17 -8 -43 -28 -57 -45 -32 -38 -83 -128 -93 -162 -3
-14 -10 -34 -14 -45 -5 -11 -14 -33 -20 -48 -6 -15 -11 -50 -11 -77 0 -41 5
-55 32 -86 l32 -36 102 6 c100 7 101 7 117 -18 20 -30 21 -46 5 -81 -13 -29
-77 -69 -128 -80 -19 -4 -55 -18 -80 -31 -25 -13 -52 -24 -60 -24 -9 0 -23 -9
-33 -20 -9 -11 -23 -20 -32 -20 -8 0 -19 -9 -25 -20 -6 -11 -15 -20 -20 -20
-11 0 -88 -68 -129 -114 -14 -17 -36 -40 -48 -52 -13 -12 -23 -26 -23 -32 0
-6 -3 -12 -7 -14 -10 -4 -61 -82 -91 -138 -14 -25 -30 -52 -37 -60 -7 -8 -30
-46 -50 -85 -21 -38 -59 -101 -84 -138 -25 -37 -51 -76 -57 -87 -6 -11 -25
-33 -42 -50 -18 -17 -32 -35 -32 -40 0 -10 -165 -176 -215 -217 -16 -13 -33
-23 -39 -23 -6 0 -17 -9 -24 -20 -7 -11 -20 -20 -30 -20 -9 0 -23 -9 -30 -20
-7 -11 -18 -20 -25 -20 -6 0 -34 -20 -60 -45 -27 -24 -53 -45 -59 -47 -6 -2
-9 -11 -7 -20 4 -15 10 -14 54 7 28 13 55 24 61 24 6 1 17 7 23 15 7 8 27 17
46 20 21 4 35 13 35 21 0 8 6 15 14 15 8 0 22 8 32 18 9 9 29 24 44 32 57 32
100 62 100 70 0 5 10 12 22 16 23 7 163 145 234 230 48 58 174 241 174 254 0
5 6 13 13 17 6 4 19 22 27 38 48 96 145 215 176 215 8 0 17 6 20 14 3 8 19 19
35 25 16 5 29 15 29 20 0 6 19 15 43 21 23 6 62 19 87 30 25 10 56 22 70 26
14 3 33 15 43 25 10 11 23 19 29 19 9 0 74 65 113 112 21 25 92 164 109 213
19 53 38 170 40 245 0 27 -11 76 -28 124 -23 63 -41 91 -82 134 -49 49 -58 54
-106 58 -33 3 -64 -1 -83 -9z"/>
<path d="M7002 2452 c-11 -11 -38 -53 -61 -94 -43 -79 -70 -104 -122 -115 -22
-4 -42 -21 -70 -59 -21 -29 -47 -58 -57 -63 -9 -5 -47 -7 -83 -4 -60 5 -72 3
-120 -23 -62 -33 -218 -185 -297 -290 -58 -75 -170 -297 -208 -410 -39 -117
-12 -170 119 -234 112 -53 147 -88 147 -144 0 -36 -8 -55 -46 -107 -93 -125
-208 -226 -333 -289 -145 -73 -344 -114 -452 -91 -137 28 -220 85 -268 185
-62 130 -66 257 -13 402 44 117 131 310 169 375 60 100 92 219 59 219 -20 0
-74 -67 -81 -101 -3 -15 -20 -49 -37 -75 -50 -79 -194 -373 -216 -444 -57
-180 -112 -407 -112 -465 0 -76 30 -225 57 -282 41 -87 112 -151 213 -193 81
-33 90 -35 200 -34 104 1 125 5 225 39 193 64 332 159 471 321 83 96 141 204
203 379 10 28 30 73 43 100 30 59 77 210 76 245 0 14 5 45 11 70 14 62 6 136
-19 167 -11 14 -20 31 -20 37 0 15 -63 74 -118 111 -45 30 -58 58 -48 101 7
28 22 44 106 114 107 90 132 98 190 55 19 -14 44 -25 57 -25 20 0 76 40 172
123 19 16 53 38 75 48 23 10 57 35 78 56 56 59 147 201 163 257 34 113 3 194
-53 138z"/>
<path d="M12014 2202 c-21 -13 -92 -171 -154 -342 -25 -68 -81 -297 -95 -390
-9 -58 -29 -159 -45 -225 -48 -205 -51 -265 -10 -265 25 0 46 32 112 171 96
201 117 287 193 794 14 94 30 185 35 203 14 51 -3 76 -36 54z"/>
<path d="M7626 1764 c-9 -9 -35 -55 -57 -102 -22 -48 -51 -108 -64 -133 -13
-25 -26 -61 -30 -80 -5 -32 -1 -39 64 -106 73 -77 110 -150 95 -195 -9 -30
-79 -97 -256 -246 -100 -84 -151 -139 -143 -153 13 -20 65 -7 121 31 33 22 62
40 67 40 17 0 159 101 188 135 119 136 203 288 233 427 35 157 -16 294 -137
368 -55 35 -60 35 -81 14z"/>
<path d="M12376 1764 c-9 -9 -35 -55 -57 -102 -22 -48 -51 -108 -64 -133 -13
-25 -26 -62 -30 -81 -6 -33 -3 -39 40 -79 84 -78 135 -173 119 -221 -9 -30
-79 -97 -256 -246 -100 -84 -151 -139 -143 -153 13 -20 63 -7 120 31 33 22 63
40 68 40 17 0 159 101 188 135 119 136 203 288 233 427 35 157 -16 294 -137
368 -55 35 -60 35 -81 14z"/>
<path d="M6993 1673 c-24 -12 -40 -34 -67 -92 -92 -199 -122 -308 -96 -356 17
-32 68 -55 119 -55 52 0 59 -15 32 -67 -41 -77 -154 -179 -259 -232 -68 -35
-142 -87 -142 -101 0 -5 14 -17 31 -26 37 -19 89 -9 178 34 103 50 288 253
323 354 6 18 21 49 33 68 35 57 46 99 52 201 7 122 -10 180 -72 244 -49 50
-76 56 -132 28z"/>
<path d="M9214 1575 c-17 -8 -35 -20 -41 -27 -18 -22 -105 -280 -110 -326 -4
-34 -1 -48 16 -66 l20 -22 -44 -94 c-79 -167 -85 -269 -21 -327 69 -63 142
-39 256 84 91 99 173 259 191 374 27 176 -24 343 -123 403 -31 19 -101 20
-144 1z m62 -440 c23 -23 47 -58 54 -79 10 -31 9 -41 -7 -69 -29 -49 -98 -97
-140 -97 -77 0 -90 50 -47 178 45 136 62 144 140 67z"/>
<path d="M124 1063 c-25 -50 -25 -136 0 -191 27 -60 49 -57 30 5 -18 59 -18
117 0 176 18 60 -2 66 -30 10z"/>
<path d="M224 1063 c-25 -50 -25 -136 0 -191 27 -60 49 -57 30 5 -18 59 -18
117 0 176 18 60 -2 66 -30 10z"/>
<path d="M4365 1083 c25 -63 29 -125 13 -186 -18 -67 -16 -76 7 -57 22 18 48
115 40 153 -10 52 -37 107 -53 107 -9 0 -12 -6 -7 -17z"/>
<path d="M4465 1083 c25 -63 29 -125 13 -186 -18 -67 -16 -76 7 -57 22 18 48
115 40 153 -10 52 -37 107 -53 107 -9 0 -12 -6 -7 -17z"/>
</g>
</svg>
